<?xml version="1.0" encoding="UTF-8" standalone="no"?>
<!-- Created with Inkscape (http://www.inkscape.org/) -->

<svg
   xmlns:dc="http://purl.org/dc/elements/1.1/"
   xmlns:cc="http://creativecommons.org/ns#"
   xmlns:rdf="http://www.w3.org/1999/02/22-rdf-syntax-ns#"
   xmlns:svg="http://www.w3.org/2000/svg"
   xmlns="http://www.w3.org/2000/svg"
   xmlns:sodipodi="http://sodipodi.sourceforge.net/DTD/sodipodi-0.dtd"
   xmlns:inkscape="http://www.inkscape.org/namespaces/inkscape"
   width="52.580631mm"
   height="10.542423mm"
   viewBox="0 0 52.580629 10.542423"
   version="1.1"
   id="svg8"
   sodipodi:docname="LOGO.svg"
   inkscape:version="0.92.3 (2405546, 2018-03-11)"
   inkscape:export-filename="D:\Documentos\WhiteJaguars\whitejaguars.com\static\assets\img\logo.png"
   inkscape:export-xdpi="211.69791"
   inkscape:export-ydpi="211.69791">
  <defs
     id="defs2">
    <clipPath
       clipPathUnits="userSpaceOnUse"
       id="clipPath843">
      <rect
         style="opacity:1;fill:#fffffe;fill-opacity:1;stroke:none;stroke-width:0.15899999;stroke-linecap:round;stroke-linejoin:round;stroke-miterlimit:4;stroke-dasharray:none;stroke-opacity:0.30653268"
         id="rect845"
         width="98.285988"
         height="25.709576"
         x="-211.15019"
         y="90.712402" />
    </clipPath>
  </defs>
  <sodipodi:namedview
     id="base"
     pagecolor="#ffffff"
     bordercolor="#666666"
     borderopacity="1.0"
     inkscape:pageopacity="0.0"
     inkscape:pageshadow="2"
     inkscape:zoom="2.8284271"
     inkscape:cx="88.769936"
     inkscape:cy="5.0645719"
     inkscape:document-units="mm"
     inkscape:current-layer="g1008"
     showgrid="false"
     inkscape:window-width="1920"
     inkscape:window-height="1017"
     inkscape:window-x="-8"
     inkscape:window-y="-8"
     inkscape:window-maximized="1"
     fit-margin-top="0"
     fit-margin-left="0"
     fit-margin-right="0"
     fit-margin-bottom="0" />
  <metadata
     id="metadata5">
    <rdf:RDF>
      <cc:Work
         rdf:about="">
        <dc:format>image/svg+xml</dc:format>
        <dc:type
           rdf:resource="http://purl.org/dc/dcmitype/StillImage" />
        <dc:title></dc:title>
      </cc:Work>
    </rdf:RDF>
  </metadata>
  <g
     inkscape:label="Layer 1"
     inkscape:groupmode="layer"
     id="layer1"
     transform="translate(216.78044,-78.734044)">
    <rect
       style="opacity:1;fill:#000000;fill-opacity:1;stroke:none;stroke-width:0.56499994;stroke-linecap:round;stroke-linejoin:round;stroke-miterlimit:4;stroke-dasharray:none;stroke-opacity:1"
       id="rect843"
       width="0.26726952"
       height="0.53453904"
       x="-258.58325"
       y="70.622704"
       ry="0.13363476" />
    <g
       id="g1008"
       transform="matrix(0.88498185,0,0,0.88498185,-25.337183,-6.1095256)"
       inkscape:export-xdpi="579.99426"
       inkscape:export-ydpi="579.99426">
      <path
         style="opacity:1;fill:#00aeef;fill-opacity:1;stroke:none;stroke-width:0.0365763;stroke-linecap:round;stroke-linejoin:round;stroke-miterlimit:4;stroke-dasharray:none;stroke-opacity:1"
         d="m -203.31928,107.73373 c -0.14182,-0.0486 -0.2525,-0.1736 -0.2525,-0.28512 0,-0.0328 0.0425,-0.21303 0.0943,-0.40042 0.0519,-0.18738 0.12479,-0.45405 0.16202,-0.59258 0.0372,-0.13853 0.0904,-0.3354 0.11808,-0.43747 0.0277,-0.10208 0.0795,-0.29298 0.11497,-0.42422 0.0355,-0.13124 0.0786,-0.28929 0.0957,-0.35121 0.0427,-0.15443 0.20496,-0.33058 0.37502,-0.40708 0.12849,-0.0578 0.18007,-0.0636 0.61745,-0.0699 0.39879,-0.006 0.49868,8.4e-4 0.60765,0.0395 0.23617,0.0838 0.28067,0.22444 0.18626,0.58844 l -0.0485,0.18698 h -0.28587 -0.28588 l 0.0163,-0.0862 c 0.009,-0.0474 0.0266,-0.10626 0.0391,-0.13082 0.0379,-0.0742 0.0257,-0.16982 -0.0277,-0.21816 -0.0986,-0.0892 -0.48046,-0.0658 -0.56934,0.0349 -0.0205,0.0233 -0.0748,0.17954 -0.12047,0.34723 -0.0457,0.1677 -0.10068,0.36457 -0.12216,0.43748 -0.0215,0.0729 -0.088,0.31153 -0.14772,0.53027 -0.24608,0.90058 -0.24096,0.86917 -0.14983,0.91891 0.0328,0.0179 0.14368,0.0332 0.24638,0.0341 0.2295,0.002 0.30706,-0.0419 0.37105,-0.20949 l 0.046,-0.12042 h 0.29088 c 0.26654,0 0.28931,0.004 0.27203,0.0464 -0.0104,0.0255 -0.028,0.0769 -0.0393,0.11423 -0.0681,0.22597 -0.24154,0.39404 -0.47393,0.45924 -0.22003,0.0617 -0.9452,0.0588 -1.13007,-0.005 z"
         id="path885"
         inkscape:connector-curvature="0"
         inkscape:export-xdpi="211.69791"
         inkscape:export-ydpi="211.69791" />
      <path
         style="opacity:1;fill:#00aeef;fill-opacity:1;stroke:none;stroke-width:0.0365763;stroke-linecap:round;stroke-linejoin:round;stroke-miterlimit:4;stroke-dasharray:none;stroke-opacity:1"
         d="m -200.80142,107.74815 c 0.0899,-0.26408 0.30853,-1.10666 0.29353,-1.13093 -0.007,-0.0105 -0.0307,-0.1914 -0.0537,-0.40191 -0.023,-0.21053 -0.0525,-0.46629 -0.0654,-0.56836 -0.0129,-0.10208 -0.0365,-0.30491 -0.0523,-0.45074 -0.0158,-0.14582 -0.034,-0.30391 -0.0404,-0.3513 l -0.0117,-0.0862 h 0.27756 c 0.19818,0 0.28087,0.009 0.28916,0.0331 0.006,0.0182 0.0307,0.31333 0.054,0.65577 0.0233,0.34245 0.0467,0.62701 0.0521,0.63236 0.0233,0.0233 0.0673,-0.0368 0.2242,-0.30594 0.0918,-0.15741 0.26277,-0.45026 0.38002,-0.65077 l 0.21318,-0.36456 h 0.27402 c 0.15071,0 0.27402,0.006 0.27402,0.0124 0,0.007 -0.11532,0.18879 -0.25628,0.40433 -0.43558,0.66609 -0.70071,1.07236 -0.84399,1.29336 -0.0918,0.1416 -0.15329,0.27381 -0.18494,0.39771 -0.0261,0.10207 -0.0747,0.28104 -0.1081,0.3977 -0.0334,0.11666 -0.0799,0.28071 -0.10333,0.36456 l -0.0426,0.15246 h -0.29008 c -0.2204,0 -0.28736,-0.008 -0.2788,-0.0331 z"
         id="path887"
         inkscape:connector-curvature="0"
         inkscape:export-xdpi="211.69791"
         inkscape:export-ydpi="211.69791" />
      <path
         style="opacity:1;fill:#00aeef;fill-opacity:1;stroke:none;stroke-width:0.0365763;stroke-linecap:round;stroke-linejoin:round;stroke-miterlimit:4;stroke-dasharray:none;stroke-opacity:1"
         d="m -199.09097,107.75214 c 0,-0.0276 0.055,-0.23725 0.2047,-0.77951 0.0362,-0.13125 0.0813,-0.29828 0.10015,-0.37119 0.0632,-0.24423 0.30269,-1.13857 0.34081,-1.27266 0.0207,-0.0729 0.0653,-0.2317 0.0991,-0.35287 l 0.0614,-0.2203 0.69059,0.008 c 0.63781,0.008 0.69857,0.0124 0.79514,0.063 0.14632,0.0768 0.20477,0.16481 0.20477,0.30847 0,0.1398 -0.16587,0.75504 -0.22992,0.85279 -0.0501,0.0764 -0.21749,0.16386 -0.36443,0.19035 -0.0547,0.01 -0.0994,0.0277 -0.0994,0.0396 0,0.0119 0.0626,0.0405 0.13919,0.0635 0.2473,0.0743 0.29791,0.153 0.23784,0.36969 -0.0207,0.0747 -0.0526,0.19542 -0.071,0.26833 -0.15132,0.60147 -0.22698,0.72009 -0.51685,0.81031 -0.14613,0.0455 -0.24715,0.0514 -0.87863,0.0514 -0.5011,0 -0.7135,-0.009 -0.7135,-0.0292 z m 1.34145,-0.35653 c 0.0758,-0.0566 0.096,-0.11028 0.21224,-0.56438 0.0826,-0.32253 0.0714,-0.37551 -0.089,-0.42359 -0.058,-0.0174 -0.19675,-0.0316 -0.30843,-0.0316 -0.18757,0 -0.20483,0.005 -0.22628,0.0611 -0.0662,0.17412 -0.26828,0.97616 -0.25242,1.00183 0.0124,0.0201 0.11169,0.0266 0.30532,0.02 0.2365,-0.008 0.29949,-0.0192 0.35859,-0.0633 z m 0.26934,-1.4006 c 0.0465,-0.024 0.0994,-0.0704 0.11754,-0.10309 0.0374,-0.0673 0.14873,-0.46064 0.17171,-0.60687 0.0229,-0.14564 -0.057,-0.18727 -0.36748,-0.19155 l -0.24314,-0.003 -0.0457,0.17233 c -0.0251,0.0948 -0.0658,0.24393 -0.0902,0.33142 -0.0967,0.34543 -0.11434,0.42431 -0.10021,0.44716 0.024,0.0388 0.46362,0.002 0.55752,-0.0461 z"
         id="path889"
         inkscape:connector-curvature="0"
         inkscape:export-xdpi="211.69791"
         inkscape:export-ydpi="211.69791" />
      <path
         style="opacity:1;fill:#00aeef;fill-opacity:1;stroke:none;stroke-width:0.0365763;stroke-linecap:round;stroke-linejoin:round;stroke-miterlimit:4;stroke-dasharray:none;stroke-opacity:1"
         d="m -196.62085,107.58907 c 0.0286,-0.10572 0.0637,-0.23995 0.0779,-0.29828 0.0142,-0.0583 0.0535,-0.2015 0.0873,-0.31816 0.0338,-0.11666 0.094,-0.33739 0.13381,-0.4905 0.0398,-0.15312 0.0938,-0.35595 0.12009,-0.45074 0.0263,-0.0948 0.0863,-0.31551 0.13332,-0.4905 0.0471,-0.17499 0.10146,-0.37185 0.12087,-0.43747 0.0194,-0.0656 0.0483,-0.17002 0.0643,-0.232 l 0.029,-0.11268 h 0.74136 c 0.40774,0 0.74136,0.007 0.74136,0.0158 0,0.009 -0.0187,0.0803 -0.0416,0.15908 -0.0479,0.16491 0.0143,0.14841 -0.5786,0.15342 l -0.36837,0.003 -0.0504,0.17234 c -0.0277,0.0948 -0.0616,0.2141 -0.0752,0.26514 -0.0136,0.051 -0.0489,0.17459 -0.0784,0.27455 -0.0295,0.1 -0.0536,0.1984 -0.0536,0.21874 0,0.03 0.0756,0.037 0.40054,0.037 0.30932,0 0.39773,0.008 0.38822,0.0331 -0.007,0.0182 -0.0282,0.0958 -0.0476,0.17234 l -0.0353,0.1392 h -0.40416 c -0.36182,0 -0.40566,0.005 -0.41841,0.0464 -0.008,0.0255 -0.0451,0.15974 -0.0828,0.29827 -0.0377,0.13854 -0.0914,0.3354 -0.11948,0.43748 -0.0832,0.30295 -0.11729,0.27839 0.38646,0.27839 h 0.43868 l -0.0182,0.0994 c -0.01,0.0547 -0.0281,0.12627 -0.0403,0.15908 l -0.0221,0.0597 h -0.7404 -0.74039 z"
         id="path891"
         inkscape:connector-curvature="0"
         inkscape:export-xdpi="211.69791"
         inkscape:export-ydpi="211.69791" />
      <path
         style="opacity:1;fill:#00aeef;fill-opacity:1;stroke:none;stroke-width:0.0365763;stroke-linecap:round;stroke-linejoin:round;stroke-miterlimit:4;stroke-dasharray:none;stroke-opacity:1"
         d="m -194.62215,107.44324 c 0.0487,-0.18592 0.11318,-0.42753 0.14331,-0.5369 0.0734,-0.2666 0.17966,-0.66094 0.23923,-0.8882 0.0702,-0.26761 0.25921,-0.95722 0.30711,-1.1202 l 0.0409,-0.1392 h 0.6973 c 0.70443,0 0.80668,0.0113 0.93641,0.10385 0.0802,0.0572 0.12315,0.19617 0.10187,0.32971 -0.03,0.18839 -0.22484,0.87089 -0.28272,0.99045 -0.0656,0.13559 -0.19944,0.25233 -0.34382,0.29998 l -0.1049,0.0346 0.0138,0.12158 c 0.035,0.30906 0.0663,0.75004 0.0663,0.93688 l 9e-5,0.20548 h -0.26258 -0.26259 l -0.0159,-0.27176 c -0.009,-0.14947 -0.0248,-0.42091 -0.0357,-0.60319 l -0.0198,-0.33142 -0.20091,-0.008 -0.2009,-0.008 -0.0871,0.32582 c -0.0479,0.1792 -0.0971,0.35565 -0.10924,0.39211 -0.0122,0.0365 -0.048,0.16472 -0.0795,0.28502 l -0.0573,0.21874 h -0.28598 -0.28597 z m 1.54543,-1.26767 c 0.0494,-0.0292 0.0956,-0.089 0.12005,-0.15544 0.0653,-0.17723 0.20246,-0.69868 0.20246,-0.76984 0,-0.11206 -0.10075,-0.1537 -0.38655,-0.15977 -0.13847,-0.003 -0.2579,0.005 -0.2654,0.0167 -0.007,0.0121 -0.0318,0.0908 -0.0541,0.17483 -0.0689,0.26 -0.13889,0.51595 -0.19403,0.70955 -0.0291,0.10208 -0.0532,0.20223 -0.0536,0.22255 -0.001,0.0572 0.52342,0.0251 0.63121,-0.0386 z"
         id="path893"
         inkscape:connector-curvature="0"
         inkscape:export-xdpi="211.69791"
         inkscape:export-ydpi="211.69791" />
      <path
         style="opacity:1;fill:#00aeef;fill-opacity:1;stroke:none;stroke-width:0.0365763;stroke-linecap:round;stroke-linejoin:round;stroke-miterlimit:4;stroke-dasharray:none;stroke-opacity:1"
         d="m -190.99752,107.73263 c -0.0619,-0.0251 -0.13089,-0.0641 -0.15334,-0.0865 -0.0551,-0.0551 -0.0759,-0.20229 -0.0536,-0.38039 l 0.0184,-0.14727 h 0.28849 0.2885 l -0.0154,0.12984 c -0.0138,0.11658 -0.009,0.13318 0.046,0.16267 0.0337,0.0181 0.14176,0.0342 0.24001,0.0359 0.21493,0.004 0.31056,-0.0523 0.36179,-0.21148 0.1204,-0.37422 0.1618,-0.55152 0.1388,-0.5945 -0.0266,-0.0497 -0.11903,-0.097 -0.49032,-0.25101 -0.49783,-0.20652 -0.51701,-0.22022 -0.51701,-0.36933 0,-0.13979 0.18817,-0.82904 0.25431,-0.93154 0.0725,-0.11232 0.13717,-0.16486 0.30247,-0.24568 0.1382,-0.0676 0.16974,-0.0718 0.60302,-0.0801 0.50727,-0.01 0.66042,0.0186 0.77851,0.14444 0.0778,0.0828 0.083,0.26215 0.0143,0.49407 l -0.0451,0.15246 h -0.27765 c -0.30893,0 -0.30459,0.003 -0.24766,-0.18675 0.062,-0.207 -0.03,-0.29322 -0.29513,-0.27668 -0.1572,0.01 -0.25326,0.0495 -0.30277,0.12502 -0.0464,0.0708 -0.17448,0.54438 -0.17448,0.64511 0,0.0751 0.004,0.0771 0.61799,0.33068 0.32622,0.13469 0.41605,0.19762 0.41605,0.29149 0,0.0928 -0.23788,0.90636 -0.28936,0.98966 -0.0717,0.11604 -0.21863,0.21444 -0.39818,0.2667 -0.21097,0.0614 -0.95191,0.0569 -1.1086,-0.007 z"
         id="path895"
         inkscape:connector-curvature="0"
         inkscape:export-xdpi="211.69791"
         inkscape:export-ydpi="211.69791" />
      <path
         style="opacity:1;fill:#00aeef;fill-opacity:1;stroke:none;stroke-width:0.0365763;stroke-linecap:round;stroke-linejoin:round;stroke-miterlimit:4;stroke-dasharray:none;stroke-opacity:1"
         d="m -188.9796,107.73489 c 0.007,-0.0255 0.0317,-0.11798 0.0542,-0.20547 0.0225,-0.0875 0.07,-0.26647 0.10549,-0.39771 0.062,-0.2292 0.32267,-1.19531 0.40422,-1.49802 0.0216,-0.0802 0.0635,-0.23531 0.0931,-0.34468 0.0296,-0.10937 0.0727,-0.27342 0.0957,-0.36456 l 0.0419,-0.16571 h 0.74844 0.74843 l -0.0426,0.15908 c -0.049,0.18301 0.0222,0.16242 -0.58339,0.16868 -0.28409,0.003 -0.35735,0.0114 -0.37453,0.0434 -0.0339,0.063 -0.24005,0.81346 -0.24005,0.87364 0,0.0523 0.0146,0.0543 0.38445,0.0543 0.26109,0 0.38445,0.009 0.38445,0.0291 0,0.016 -0.0187,0.0932 -0.0415,0.17166 l -0.0414,0.14259 -0.40252,0.007 -0.40252,0.007 -0.13813,0.50159 c -0.076,0.27588 -0.132,0.51152 -0.12451,0.52365 0.007,0.0121 0.21059,0.0221 0.45133,0.0221 0.40426,0 0.43667,0.004 0.42434,0.0464 -0.007,0.0255 -0.0279,0.0971 -0.0457,0.15909 l -0.0324,0.11268 h -0.73997 c -0.69211,0 -0.73912,-0.003 -0.72673,-0.0464 z"
         id="path897"
         inkscape:connector-curvature="0"
         inkscape:export-xdpi="211.69791"
         inkscape:export-ydpi="211.69791" />
      <path
         style="opacity:1;fill:#00aeef;fill-opacity:1;stroke:none;stroke-width:0.0365763;stroke-linecap:round;stroke-linejoin:round;stroke-miterlimit:4;stroke-dasharray:none;stroke-opacity:1"
         d="m -186.7091,107.73857 c -0.23146,-0.078 -0.28919,-0.23566 -0.20307,-0.55468 0.34747,-1.28712 0.53295,-1.9529 0.56602,-2.03177 0.0539,-0.12863 0.17707,-0.24429 0.33966,-0.31905 0.11944,-0.0549 0.17917,-0.0618 0.60314,-0.0698 0.52561,-0.01 0.68928,0.0208 0.78907,0.14761 0.0995,0.12644 0.0992,0.16213 -0.004,0.57035 l -0.0251,0.0994 h -0.29062 c -0.15985,0 -0.29063,-0.004 -0.29063,-0.01 0,-0.005 0.0179,-0.0606 0.0398,-0.12265 0.0543,-0.15393 0.0516,-0.28364 -0.007,-0.3139 -0.10053,-0.0523 -0.33969,-0.0615 -0.44997,-0.0174 -0.15319,0.0613 -0.14335,0.0351 -0.47206,1.25926 -0.0664,0.24731 -0.14459,0.53262 -0.21621,0.78899 -0.0463,0.16586 -0.0463,0.16594 0.0132,0.22537 0.0514,0.0512 0.0868,0.0593 0.25737,0.0581 0.23668,-0.001 0.32348,-0.0514 0.38298,-0.21984 l 0.0389,-0.11028 h 0.28635 0.28634 l -0.0163,0.0729 c -0.0325,0.14567 -0.15,0.35332 -0.23787,0.42034 -0.17094,0.13038 -0.36798,0.16973 -0.84293,0.16832 -0.30986,-8.4e-4 -0.46151,-0.0124 -0.54779,-0.0414 z"
         id="path899"
         inkscape:connector-curvature="0"
         inkscape:export-xdpi="211.69791"
         inkscape:export-ydpi="211.69791" />
      <path
         style="opacity:1;fill:#00aeef;fill-opacity:1;stroke:none;stroke-width:0.0365763;stroke-linecap:round;stroke-linejoin:round;stroke-miterlimit:4;stroke-dasharray:none;stroke-opacity:1"
         d="m -184.38916,107.71898 c -0.22976,-0.10709 -0.25438,-0.23278 -0.13453,-0.6867 0.0896,-0.33929 0.29406,-1.10048 0.37216,-1.38533 0.02,-0.0729 0.0792,-0.292 0.13163,-0.48686 0.0524,-0.19485 0.10183,-0.36487 0.10983,-0.37782 0.0155,-0.0251 0.5682,-0.0337 0.5682,-0.009 0,0.008 -0.0489,0.19599 -0.10867,0.41759 -0.0598,0.2216 -0.12425,0.46256 -0.14328,0.53547 -0.019,0.0729 -0.0962,0.35926 -0.17157,0.63633 -0.22179,0.81578 -0.24491,0.91536 -0.22804,0.98256 0.0205,0.0819 0.10216,0.1045 0.37788,0.1045 0.17838,0 0.23008,-0.01 0.29165,-0.0554 0.0988,-0.0732 0.12174,-0.12528 0.22059,-0.50138 0.046,-0.17499 0.11106,-0.41958 0.14457,-0.54353 0.0335,-0.12395 0.10358,-0.38643 0.15571,-0.5833 0.0521,-0.19686 0.13417,-0.50111 0.1823,-0.6761 l 0.0875,-0.31816 0.28502,-0.008 c 0.19843,-0.005 0.28502,10e-4 0.28502,0.0224 0,0.0165 -0.0231,0.10933 -0.0512,0.20638 -0.0282,0.097 -0.0831,0.29576 -0.12211,0.44159 -0.039,0.14582 -0.0878,0.32479 -0.10841,0.39771 -0.0207,0.0729 -0.12092,0.4406 -0.22282,0.81708 -0.10191,0.37649 -0.20266,0.71814 -0.22391,0.75923 -0.0212,0.0411 -0.0926,0.12219 -0.15849,0.18021 -0.18317,0.16124 -0.33155,0.19228 -0.9177,0.19197 -0.45598,-2.1e-4 -0.49765,-0.004 -0.62133,-0.062 z"
         id="path901"
         inkscape:connector-curvature="0"
         inkscape:export-xdpi="211.69791"
         inkscape:export-ydpi="211.69791" />
      <path
         style="opacity:1;fill:#00aeef;fill-opacity:1;stroke:none;stroke-width:0.0365763;stroke-linecap:round;stroke-linejoin:round;stroke-miterlimit:4;stroke-dasharray:none;stroke-opacity:1"
         d="m -182.14875,107.74702 c 0,-0.0198 0.0356,-0.16297 0.0792,-0.31808 0.0436,-0.1551 0.0902,-0.32719 0.10358,-0.38242 0.0134,-0.0552 0.0735,-0.27937 0.13359,-0.49811 0.0601,-0.21874 0.13948,-0.51105 0.17647,-0.64958 0.037,-0.13854 0.0825,-0.30557 0.10115,-0.3712 0.0186,-0.0656 0.0743,-0.26546 0.12365,-0.4441 l 0.0898,-0.32479 0.70325,10e-4 c 0.7301,0.001 0.84128,0.0151 0.95674,0.1196 0.10156,0.0919 0.10984,0.21205 0.0346,0.50182 -0.0881,0.33935 -0.18287,0.66983 -0.21827,0.76137 -0.046,0.11886 -0.21181,0.28056 -0.33663,0.32823 -0.10441,0.0399 -0.11761,0.0542 -0.11752,0.12749 1.1e-4,0.0769 0.0343,0.59286 0.0665,1.00391 l 0.014,0.17897 h -0.27897 -0.27896 l 2.1e-4,-0.16571 c 1.3e-4,-0.0911 -0.0143,-0.36601 -0.0322,-0.61083 l -0.0324,-0.44511 -0.19875,0.008 -0.19874,0.008 -0.16246,0.59656 -0.16245,0.59656 -0.28274,0.008 c -0.22444,0.006 -0.28274,9e-5 -0.28274,-0.0285 z m 1.44876,-1.52036 c 0.0793,-0.01 0.16635,-0.0403 0.2081,-0.0736 0.0715,-0.057 0.0758,-0.0691 0.24036,-0.67312 0.0558,-0.20487 0.0502,-0.31523 -0.0178,-0.35164 -0.0604,-0.0323 -0.53133,-0.0554 -0.57435,-0.0281 -0.0143,0.009 -0.0516,0.11791 -0.0829,0.24186 -0.0313,0.12395 -0.0974,0.36817 -0.14699,0.5427 -0.0496,0.17454 -0.0844,0.32666 -0.0773,0.33805 0.0153,0.0247 0.26013,0.0268 0.45092,0.004 z"
         id="path903"
         inkscape:connector-curvature="0"
         inkscape:export-xdpi="211.69791"
         inkscape:export-ydpi="211.69791" />
      <path
         style="opacity:1;fill:#00aeef;fill-opacity:1;stroke:none;stroke-width:0.0365763;stroke-linecap:round;stroke-linejoin:round;stroke-miterlimit:4;stroke-dasharray:none;stroke-opacity:1"
         d="m -179.73327,107.69513 c 0.0332,-0.1177 0.22001,-0.80978 0.2845,-1.05392 0.0289,-0.10937 0.10135,-0.37782 0.16103,-0.59656 0.1136,-0.41643 0.19941,-0.73161 0.24181,-0.88821 0.0138,-0.051 0.044,-0.1614 0.0671,-0.24525 l 0.042,-0.15245 h 0.28808 0.28808 l -0.0492,0.17897 c -0.0271,0.0984 -0.0814,0.29827 -0.12067,0.4441 -0.0393,0.14582 -0.11653,0.43217 -0.17165,0.63633 -0.0551,0.20415 -0.16643,0.61763 -0.24736,0.91885 -0.0809,0.30121 -0.16655,0.6144 -0.19027,0.69598 l -0.0431,0.14832 h -0.28729 -0.28728 z"
         id="path905"
         inkscape:connector-curvature="0"
         inkscape:export-xdpi="211.69791"
         inkscape:export-ydpi="211.69791" />
      <path
         style="opacity:1;fill:#00aeef;fill-opacity:1;stroke:none;stroke-width:0.0365763;stroke-linecap:round;stroke-linejoin:round;stroke-miterlimit:4;stroke-dasharray:none;stroke-opacity:1"
         d="m -178.19822,107.76358 c 0,-0.0174 0.14839,-0.57093 0.38615,-1.44054 0.0658,-0.24061 0.15527,-0.56871 0.19886,-0.72912 0.0436,-0.16041 0.0916,-0.33036 0.10671,-0.37767 0.0151,-0.0473 0.0203,-0.0977 0.0115,-0.11189 -0.009,-0.0151 -0.12571,-0.022 -0.27872,-0.0165 -0.1445,0.005 -0.26725,0.005 -0.27277,-6.3e-4 -0.006,-0.006 0.007,-0.0817 0.0289,-0.16925 l 0.0389,-0.15921 h 0.87415 0.87415 l -0.0176,0.0729 c -0.01,0.0401 -0.0289,0.11585 -0.0426,0.16833 l -0.025,0.0954 -0.26101,-0.009 c -0.17819,-0.006 -0.27368,0.002 -0.30093,0.0239 -0.022,0.0179 -0.0611,0.11601 -0.087,0.21809 -0.0259,0.10208 -0.082,0.31087 -0.12464,0.46399 -0.0426,0.15312 -0.1,0.36191 -0.12737,0.46399 -0.0274,0.10208 -0.0795,0.29297 -0.11562,0.42422 -0.0362,0.13124 -0.0973,0.35793 -0.13581,0.50376 -0.0385,0.14582 -0.0902,0.3397 -0.11476,0.43084 l -0.0447,0.16571 h -0.28536 c -0.15694,0 -0.28535,-0.008 -0.28535,-0.0177 z"
         id="path907"
         inkscape:connector-curvature="0"
         inkscape:export-xdpi="211.69791"
         inkscape:export-ydpi="211.69791" />
      <path
         style="opacity:1;fill:#00aeef;fill-opacity:1;stroke:none;stroke-width:0.0365763;stroke-linecap:round;stroke-linejoin:round;stroke-miterlimit:4;stroke-dasharray:none;stroke-opacity:1"
         d="m -176.05872,107.53604 c 0.0355,-0.13489 0.10079,-0.37053 0.14519,-0.52364 0.0847,-0.29209 0.0939,-0.42994 0.0469,-0.70374 -0.0149,-0.0869 -0.0439,-0.31306 -0.0645,-0.50263 -0.0384,-0.35298 -0.075,-0.66152 -0.10779,-0.90809 l -0.0185,-0.1392 h 0.2806 0.28061 l 0.0139,0.0862 c 0.0123,0.0763 0.0292,0.27841 0.0866,1.03403 0.009,0.11302 0.0245,0.20548 0.0353,0.20548 0.0216,0 0.0994,-0.1271 0.50293,-0.82192 0.14823,-0.2552 0.27852,-0.47338 0.28955,-0.48485 0.011,-0.0115 0.14071,-0.0174 0.28821,-0.0132 l 0.26816,0.008 -0.11924,0.1856 c -0.0656,0.10207 -0.2046,0.31684 -0.30892,0.47724 -0.10431,0.16041 -0.302,0.46465 -0.4393,0.6761 -0.13731,0.21145 -0.27724,0.42621 -0.31097,0.47725 -0.0337,0.051 -0.0805,0.16438 -0.10383,0.25188 -0.0234,0.0875 -0.0726,0.27242 -0.10937,0.41096 -0.0368,0.13853 -0.085,0.31452 -0.10709,0.39107 l -0.0402,0.1392 h -0.28627 -0.28628 z"
         id="path909"
         inkscape:connector-curvature="0"
         inkscape:export-xdpi="211.69791"
         inkscape:export-ydpi="211.69791" />
      <path
         style="opacity:1;fill:#000000;fill-opacity:1;stroke:none;stroke-width:0.0569547;stroke-linecap:round;stroke-linejoin:round;stroke-miterlimit:4;stroke-dasharray:none;stroke-opacity:1"
         d="m -211.81193,107.49737 c -0.13599,-0.153 -0.71088,-0.78696 -1.27753,-1.40881 -0.56664,-0.62185 -1.03571,-1.14492 -1.04237,-1.16237 -0.007,-0.0174 0.12315,-0.0665 0.28847,-0.109 0.33712,-0.0867 0.90236,-0.093 1.57642,-0.0175 0.52812,0.0591 1.51127,0.26213 1.80065,0.37185 0.305,0.11564 0.59199,0.33911 0.6945,0.54077 0.09,0.17705 0.109,0.4925 0.0377,0.62617 -0.0591,0.11078 0.031,0.21028 0.30849,0.34092 0.38848,0.18288 0.90979,0.28714 1.28943,0.25787 0.51653,-0.0398 1.28048,-0.24829 1.8712,-0.51063 0.22475,-0.0998 0.24312,-0.15594 0.24312,-0.74276 0,-0.47958 -0.0797,-0.84416 -0.31909,-1.45896 -0.21729,-0.55814 -0.3364,-1.01006 -0.48099,-1.82489 -0.32668,-1.84113 -0.76701,-2.547979 -2.31132,-3.710306 -0.87837,-0.6611 -2.6677,-1.765796 -2.81577,-1.738393 -0.0921,0.01702 -0.33981,0.527185 -0.51907,1.068776 -0.18866,0.570002 -0.27846,1.105015 -0.28578,1.702605 l -0.006,0.483768 -0.11563,-0.11113 c -0.29731,-0.28575 -0.51062,-1.070599 -0.47068,-1.731799 l 0.0204,-0.337702 -0.19098,0.08401 c -0.4964,0.218384 -1.44526,0.598756 -2.00424,0.803441 -0.33998,0.124496 -0.65988,0.243644 -0.71088,0.26477 -0.051,0.02112 -0.0927,0.03415 -0.0927,0.02894 0,-0.03837 0.31137,-1.44275 0.49271,-2.222241 0.0873,-0.375348 0.17514,-0.756903 0.19516,-0.847895 l 0.0364,-0.165444 3.41717,-0.01059 c 2.70798,-0.0084 3.42325,1.99e-4 3.44647,0.04136 0.0161,0.02857 0.44345,0.594204 0.94962,1.25697 0.50617,0.662763 1.20776,1.583702 1.55908,2.046531 0.35132,0.462826 1.11629,1.469519 1.69994,2.237089 0.58364,0.76757 1.06117,1.42638 1.06117,1.46402 0,0.0824 -0.16278,0.76205 -0.90546,3.78046 l -0.23916,0.97198 -3.47664,0.008 -3.47663,0.008 z"
         id="path945"
         inkscape:connector-curvature="0"
         inkscape:export-xdpi="211.69791"
         inkscape:export-ydpi="211.69791" />
      <path
         style="opacity:1;fill:#000000;fill-opacity:1;stroke:none;stroke-width:0.0569547;stroke-linecap:round;stroke-linejoin:round;stroke-miterlimit:4;stroke-dasharray:none;stroke-opacity:1"
         d="m -208.02002,103.21644 c -0.0677,-0.0948 -0.18825,-0.24528 -0.26787,-0.33444 -0.16064,-0.1799 -0.59489,-0.47862 -0.69719,-0.47961 -0.13659,-10e-4 -0.17187,-0.0803 -0.24967,-0.559 -0.044,-0.27067 -0.0749,-0.49725 -0.0687,-0.5035 0.0125,-0.0125 0.005,-0.0194 0.56762,0.49684 l 0.3973,0.36433 0.23486,0.57974 c 0.12918,0.31885 0.22853,0.58609 0.22079,0.59385 -0.008,0.008 -0.0695,-0.0634 -0.13718,-0.15821 z"
         id="path947"
         inkscape:connector-curvature="0"
         inkscape:export-xdpi="211.69791"
         inkscape:export-ydpi="211.69791" />
      <path
         style="opacity:1;fill:#000000;fill-opacity:1;stroke:none;stroke-width:0.4605341;stroke-linecap:round;stroke-linejoin:round;stroke-miterlimit:4;stroke-dasharray:none;stroke-opacity:1"
         d="M 48.058676,23.170962 C 47.963378,22.709172 44.95273,0.69737332 44.95273,0.46240628 c 0,-0.14471128 0.241584,-0.1812051 1.199556,-0.1812051 0.659756,0 1.199556,0.0494231 1.199556,0.10982902 0,0.15758225 2.641768,19.3608238 2.694719,19.5881458 0.03922,0.168358 0.05208,0.168358 0.115815,0 0.03943,-0.104172 0.618628,-4.422574 1.287099,-9.596449 0.668472,-5.1738754 1.246577,-9.56530177 1.284678,-9.75872557 l 0.06927,-0.35167961 1.21524,0.0360069 1.215241,0.036007 1.267566,9.80707128 c 0.697161,5.393889 1.310181,9.849608 1.362267,9.9016 0.05209,0.05199 0.09318,0.04244 0.09131,-0.02122 -0.0019,-0.06366 0.578568,-4.533586 1.28985,-9.933167 l 1.293237,-9.81741981 h 1.046129 c 0.750497,0 1.047308,0.0446039 1.050303,0.15783633 0.0023,0.08681 -0.693067,5.31434938 -1.545253,11.61675448 l -1.54942,11.458919 h -1.660556 -1.660555 l -0.07231,-0.410375 C 56.106708,22.878629 55.609419,19.369928 55.041389,15.30722 54.47336,11.244513 53.973826,7.8805523 53.931314,7.831752 c -0.04251,-0.0488 -0.590502,3.445696 -1.217757,7.765547 l -1.140463,7.854276 -1.721019,0.03506 -1.721019,0.03506 z"
         id="path933"
         inkscape:connector-curvature="0"
         transform="matrix(0.29897035,0,0,0.29897035,-216.3245,95.870406)"
         inkscape:export-xdpi="211.69791"
         inkscape:export-ydpi="211.69791" />
      <path
         style="opacity:1;fill:#000000;fill-opacity:1;stroke:none;stroke-width:0.4605341;stroke-linecap:round;stroke-linejoin:round;stroke-miterlimit:4;stroke-dasharray:none;stroke-opacity:1"
         d="M 64.903243,11.897955 V 0.28120118 h 1.26269 1.262691 V 5.5213675 10.761534 h 2.904188 2.904189 V 5.5213675 0.28120118 h 1.262691 1.26269 V 11.897955 23.51471 h -1.26269 -1.262691 v -5.240167 -5.240166 h -2.904189 -2.904188 v 5.240166 5.240167 h -1.262691 -1.26269 z"
         id="path935"
         inkscape:connector-curvature="0"
         transform="matrix(0.29897035,0,0,0.29897035,-216.3245,95.870406)"
         inkscape:export-xdpi="211.69791"
         inkscape:export-ydpi="211.69791" />
      <path
         style="opacity:1;fill:#000000;fill-opacity:1;stroke:none;stroke-width:0.4605341;stroke-linecap:round;stroke-linejoin:round;stroke-miterlimit:4;stroke-dasharray:none;stroke-opacity:1"
         d="M 78.540302,11.897955 V 0.28120118 h 1.262691 1.26269 V 11.897955 23.51471 h -1.26269 -1.262691 z"
         id="path937"
         inkscape:connector-curvature="0"
         transform="matrix(0.29897035,0,0,0.29897035,-216.3245,95.870406)"
         inkscape:export-xdpi="211.69791"
         inkscape:export-ydpi="211.69791" />
      <path
         style="opacity:1;fill:#000000;fill-opacity:1;stroke:none;stroke-width:0.4605341;stroke-linecap:round;stroke-linejoin:round;stroke-miterlimit:4;stroke-dasharray:none;stroke-opacity:1"
         d="M 87.252868,13.034377 V 2.5540444 H 85.106293 82.959719 V 1.4176228 0.28120118 h 5.555839 5.555839 V 1.4176228 2.5540444 H 91.924823 89.778249 V 13.034377 23.51471 h -1.262691 -1.26269 z"
         id="path939"
         inkscape:connector-curvature="0"
         transform="matrix(0.29897035,0,0,0.29897035,-216.3245,95.870406)"
         inkscape:export-xdpi="211.69791"
         inkscape:export-ydpi="211.69791" />
      <path
         style="opacity:1;fill:#000000;fill-opacity:1;stroke:none;stroke-width:0.4605341;stroke-linecap:round;stroke-linejoin:round;stroke-miterlimit:4;stroke-dasharray:none;stroke-opacity:1"
         d="M 95.965433,11.897955 V 0.28120118 h 4.735087 4.73509 V 1.4176228 2.5540444 h -3.4724 -3.472395 v 4.0406102 4.0406104 h 2.841055 2.84105 v 1.136421 1.136422 h -2.84105 -2.841055 v 4.166879 4.16688 h 3.472395 3.4724 v 1.136421 1.136422 h -4.73509 -4.735087 z"
         id="path941"
         inkscape:connector-curvature="0"
         transform="matrix(0.29897035,0,0,0.29897035,-216.3245,95.870406)"
         inkscape:export-xdpi="211.69791"
         inkscape:export-ydpi="211.69791" />
      <path
         style="opacity:1;fill:#000000;fill-opacity:1;stroke:none;stroke-width:0.4605341;stroke-linecap:round;stroke-linejoin:round;stroke-miterlimit:4;stroke-dasharray:none;stroke-opacity:1"
         d="m 112.50668,22.404284 v -1.110425 h 0.86073 c 1.52491,0 2.60797,-0.662039 2.91975,-1.784741 0.0869,-0.313005 0.1327,-3.699777 0.13316,-9.8524385 l 7e-4,-9.37547832 h 1.26269 1.26269 l -9.6e-4,9.12294022 c -5.8e-4,5.5944926 -0.0508,9.4299566 -0.12977,9.9167446 -0.22172,1.366345 -0.59442,2.16126 -1.38308,2.949914 -0.93472,0.934724 -1.84855,1.24391 -3.67652,1.24391 h -1.24939 z"
         id="path943"
         inkscape:connector-curvature="0"
         transform="matrix(0.29897035,0,0,0.29897035,-216.3245,95.870406)"
         inkscape:export-xdpi="211.69791"
         inkscape:export-ydpi="211.69791" />
      <path
         style="opacity:1;fill:#000000;fill-opacity:1;stroke:none;stroke-width:0.4605341;stroke-linecap:round;stroke-linejoin:round;stroke-miterlimit:4;stroke-dasharray:none;stroke-opacity:1"
         d="m 121.14687,22.730074 c 0.0831,-0.43655 1.08401,-5.666135 2.22423,-11.6213 l 2.07313,-10.82757282 h 1.83561 1.83562 l 2.21741,11.58518682 2.21741,11.585187 -1.19417,0.03634 c -0.65679,0.01998 -1.21469,0.01581 -1.23978,-0.0093 -0.0344,-0.03436 -0.92525,-4.440815 -0.93089,-4.604297 -6e-4,-0.01736 -1.35439,-0.03157 -3.00843,-0.03157 h -3.00735 l -0.43584,2.304411 -0.43583,2.30441 -1.15112,0.03611 -1.15111,0.03611 z m 8.65867,-6.111107 c 0,-0.166467 -2.54164,-13.1294535 -2.60915,-13.3073082 -0.0395,-0.104172 -0.0937,-0.1325825 -0.12026,-0.063134 -0.0266,0.069448 -0.58825,2.9673231 -1.24811,6.4397225 -0.65985,3.4723987 -1.23261,6.4697107 -1.27279,6.6606927 l -0.073,0.34724 h 2.66168 c 1.46393,0 2.66168,-0.03475 2.66168,-0.07721 z"
         id="path946"
         inkscape:connector-curvature="0"
         transform="matrix(0.29897035,0,0,0.29897035,-216.3245,95.870406)"
         inkscape:export-xdpi="211.69791"
         inkscape:export-ydpi="211.69791" />
      <path
         style="opacity:1;fill:#000000;fill-opacity:1;stroke:none;stroke-width:0.4605341;stroke-linecap:round;stroke-linejoin:round;stroke-miterlimit:4;stroke-dasharray:none;stroke-opacity:1"
         d="m 139.21259,23.597276 c -2.01924,-0.525747 -3.15135,-1.857918 -3.55202,-4.179713 -0.27734,-1.607117 -0.18895,-14.7129287 0.10578,-15.6846198 0.46258,-1.5250651 1.38947,-2.6933882 2.54086,-3.20270523 0.92004,-0.40697619 2.24561,-0.56424275 3.33213,-0.39532533 1.17277,0.18232611 1.86735,0.48176564 2.55175,1.10008526 1.1558,1.0441898 1.62197,2.3531628 1.73677,4.8766395 l 0.0794,1.7457079 h -1.20487 -1.20487 l -0.0522,-1.7361997 c -0.0421,-1.4014469 -0.10205,-1.8465594 -0.31078,-2.3085818 -0.43662,-0.9664679 -1.31585,-1.5096491 -2.4436,-1.5096491 -1.08711,0 -1.9361,0.5000746 -2.43621,1.4350021 -0.27844,0.5205147 -0.27857,0.5243588 -0.27857,8.1600382 0,7.22818 0.0128,7.66504 0.23783,8.117997 0.49548,0.997327 1.26732,1.454171 2.47695,1.466073 1.17442,0.01155 2.01817,-0.520656 2.48541,-1.567707 0.19004,-0.425879 0.23138,-0.964926 0.26858,-3.502243 l 0.044,-2.998891 h -1.20957 -1.20957 v -1.136421 -1.136422 h 2.4119 2.41191 l -0.0596,4.135312 c -0.0632,4.382565 -0.11119,4.776107 -0.73433,6.023843 -0.41991,0.840772 -1.42475,1.740226 -2.3284,2.084192 -0.92728,0.352961 -2.72111,0.457684 -3.65861,0.213588 z"
         id="path948"
         inkscape:connector-curvature="0"
         transform="matrix(0.29897035,0,0,0.29897035,-216.3245,95.870406)"
         inkscape:export-xdpi="211.69791"
         inkscape:export-ydpi="211.69791" />
      <path
         style="opacity:1;fill:#000000;fill-opacity:1;stroke:none;stroke-width:0.4605341;stroke-linecap:round;stroke-linejoin:round;stroke-miterlimit:4;stroke-dasharray:none;stroke-opacity:1"
         d="m 151.68804,23.512778 c -1.45506,-0.475567 -2.41531,-1.489307 -2.97021,-3.135644 -0.28194,-0.836488 -0.28325,-0.879012 -0.32277,-10.4679164 l -0.0397,-9.62801642 h 1.26551 1.2655 l 0.0346,9.62801642 0.0346,9.6280164 0.29941,0.608109 c 0.42198,0.857079 1.04349,1.239663 2.14146,1.318223 1.40594,0.100595 2.30956,-0.457636 2.81158,-1.736928 0.14032,-0.357577 0.18081,-2.255795 0.21209,-9.9436894 l 0.0386,-9.50174742 h 1.13118 1.13118 l -0.002,9.31234382 c -0.002,10.118568 -0.0127,10.289687 -0.70667,11.706929 -0.42549,0.868965 -1.22266,1.624678 -2.17254,2.059545 -0.99961,0.457635 -2.99436,0.531031 -4.15172,0.152759 z"
         id="path950"
         inkscape:connector-curvature="0"
         transform="matrix(0.29897035,0,0,0.29897035,-216.3245,95.870406)"
         inkscape:export-xdpi="211.69791"
         inkscape:export-ydpi="211.69791" />
      <path
         style="opacity:1;fill:#000000;fill-opacity:1;stroke:none;stroke-width:0.4605341;stroke-linecap:round;stroke-linejoin:round;stroke-miterlimit:4;stroke-dasharray:none;stroke-opacity:1"
         d="m 160.80298,23.230604 c 0.1145,-0.490472 4.3579,-22.74168889 4.3579,-22.85163746 0,-0.0574841 0.83674,-0.0887922 1.85942,-0.0695737 l 1.85942,0.0349428 2.17278,11.30108136 c 1.19504,6.215595 2.17657,11.428929 2.1812,11.585187 0.008,0.275242 -0.029,0.284106 -1.18875,0.284106 -1.13764,0 -1.20045,-0.01412 -1.26354,-0.284106 -0.0775,-0.331806 -0.8223,-4.258671 -0.8223,-4.335713 0,-0.02867 -1.35702,-0.05214 -3.01559,-0.05214 h -3.01558 l -0.39937,2.115007 c -0.21965,1.163254 -0.42904,2.214444 -0.46532,2.335978 -0.0564,0.189079 -0.22909,0.220971 -1.19628,0.220971 -1.10765,0 -1.12899,-0.0057 -1.06399,-0.284106 z m 8.73596,-6.818529 c -0.0378,-0.156258 -0.61466,-3.096749 -1.28191,-6.5344246 -1.24238,-6.4007856 -1.3153,-6.7474327 -1.40133,-6.6614035 -0.0452,0.045214 -2.5787,13.2095281 -2.5787,13.3992511 0,0.04438 1.1994,0.08068 2.66534,0.08068 h 2.66534 z"
         id="path952"
         inkscape:connector-curvature="0"
         transform="matrix(0.29897035,0,0,0.29897035,-216.3245,95.870406)"
         inkscape:export-xdpi="211.69791"
         inkscape:export-ydpi="211.69791" />
      <path
         style="opacity:1;fill:#000000;fill-opacity:1;stroke:none;stroke-width:0.4605341;stroke-linecap:round;stroke-linejoin:round;stroke-miterlimit:4;stroke-dasharray:none;stroke-opacity:1"
         d="M 175.51495,11.897955 V 0.28120118 l 2.93575,0.002192 c 4.03473,0.003013 5.01887,0.23130201 6.11268,1.41794342 0.28266,0.306646 0.64926,0.8938512 0.81467,1.3049007 0.28433,0.7065395 0.30076,0.8956529 0.30076,3.4621477 0,2.5245842 -0.0199,2.7641429 -0.28472,3.4192839 -0.37883,0.9373701 -1.0088,1.6480501 -1.78942,2.0186621 -0.35191,0.16708 -0.63985,0.335774 -0.63985,0.374875 0,0.0391 0.21044,0.14719 0.46765,0.240196 0.2572,0.09301 0.76363,0.465093 1.1254,0.826859 1.07091,1.070917 1.18729,1.610325 1.29436,5.999569 0.061,2.502714 0.13601,3.685192 0.24613,3.882774 l 0.15834,0.284106 h -1.24686 c -1.23447,0 -1.24857,-0.0034 -1.41833,-0.34724 -0.12486,-0.25287 -0.1939,-1.290937 -0.25404,-3.81964 -0.0466,-1.960648 -0.1435,-3.656706 -0.22251,-3.895742 -0.22305,-0.674738 -0.77055,-1.290301 -1.39913,-1.573077 -0.46104,-0.207403 -0.91631,-0.272956 -2.19184,-0.315598 l -1.60993,-0.05382 v 5.002559 5.002559 h -1.19956 -1.19955 z m 6.07481,-0.825654 c 0.7143,-0.252017 1.18986,-0.717718 1.46752,-1.4370977 0.1829,-0.4738685 0.22321,-0.977345 0.22321,-2.7880106 0,-2.4809348 -0.14767,-3.1392055 -0.83374,-3.7164941 -0.54792,-0.4610474 -1.12703,-0.5751646 -2.92276,-0.57595 l -1.60993,-7.042e-4 V 6.9103273 11.26661 h 1.56249 c 1.08364,0 1.73126,-0.05955 2.11321,-0.194309 z"
         id="path954"
         inkscape:connector-curvature="0"
         transform="matrix(0.29897035,0,0,0.29897035,-216.3245,95.870406)"
         inkscape:export-xdpi="211.69791"
         inkscape:export-ydpi="211.69791" />
      <path
         style="opacity:1;fill:#000000;fill-opacity:1;stroke:none;stroke-width:0.4605341;stroke-linecap:round;stroke-linejoin:round;stroke-miterlimit:4;stroke-dasharray:none;stroke-opacity:1"
         d="m 192.0625,23.63783 c -2.45714,-0.518519 -3.79016,-2.613962 -3.79342,-5.963065 l -9.6e-4,-0.978585 h 1.11735 1.11735 l 0.0792,1.231123 c 0.0911,1.416473 0.22612,1.972716 0.62422,2.571802 0.85439,1.285751 3.36152,1.340474 4.28803,0.09359 0.88346,-1.188959 0.91801,-3.172021 0.0838,-4.807292 -0.33193,-0.650634 -1.7312,-2.060039 -3.58495,-3.610925 -2.63406,-2.203703 -3.59867,-3.9033267 -3.59867,-6.3407792 0,-2.6064698 0.98806,-4.5491575 2.69854,-5.30578504 2.05572,-0.9093438 4.94593,-0.41891144 6.20588,1.05306224 0.81991,0.9578831 1.3181,2.4790493 1.32151,4.0350903 l 0.002,0.8523162 h -1.1845 -1.18449 l -0.0512,-1.1679889 c -0.059,-1.3452151 -0.37691,-2.0949229 -1.09304,-2.5772794 -1.1547,-0.7777573 -3.00466,-0.4394036 -3.7648,0.6885742 -0.67587,1.002928 -0.65755,3.113418 0.039,4.4879242 0.37626,0.7425076 1.69033,2.0887388 3.57725,3.6648154 2.79769,2.3368 3.657,3.868813 3.66031,6.525747 0.003,2.676072 -1.07385,4.577783 -3.0035,5.302558 -0.82276,0.309027 -2.65355,0.435259 -3.55469,0.245094 z"
         id="path956"
         inkscape:connector-curvature="0"
         transform="matrix(0.29897035,0,0,0.29897035,-216.3245,95.870406)"
         inkscape:export-xdpi="211.69791"
         inkscape:export-ydpi="211.69791" />
    </g>
  </g>
</svg>
